# xmcd CD database file
#
# Track frame offsets:
#	150
#	17170
#	32827
#	46760
#	58937
#	72372
#	86432
#	99675
#	118057
#	130245
#	155110
#	170457
#	186137
#	200475
#	215105
#	228612
#	241692
#	260930
#	284230
#	296090
#	310465
#
# Disc length: 4341 seconds
#
# Revision: 0
# Processed by: cddbd v1.5.1PL0 Copyright (c) Steve Scherf et al.
# Submitted via: CDex 1.50
#
DISCID=5110f315
DTITLE=Harry Strutters Hot Rhythm Orchestra - Harry Strutters Hot Rhythm Orchestra
DYEAR=1900
DGENRE=Jazz
TTITLE0=Rhythm King
TTITLE1=The Charleston
TTITLE2=Copenhagen
TTITLE3=Ice Cream
TTITLE4=How could Red Riding Hood?
TTITLE5=Sugar Foot Strut
TTITLE6=Jaaz Me Blues
TTITLE7=Chili Bom Bom
TTITLE8=Candy Lips
TTITLE9=It Don't Mean a Thing if it Ain't Got that Swing
TTITLE10=Black and Tan Fantasy
TTITLE11=If I had A Talking Picture of You
TTITLE12=Hard Hearted Hannah
TTITLE13=Riverboat Shuffle
TTITLE14=Stevedore Stomp
TTITLE15=Limehouse Blues
TTITLE16=If I could be with you one hour tonight
TTITLE17=Blue Skies
TTITLE18=Squeeze me
TTITLE19=Gee baby ain't I good to you
TTITLE20=Buddy's Habit
EXTD=
EXTT0=
EXTT1=
EXTT2=
EXTT3=
EXTT4=
EXTT5=
EXTT6=
EXTT7=
EXTT8=
EXTT9=
EXTT10=
EXTT11=
EXTT12=
EXTT13=
EXTT14=
EXTT15=
EXTT16=
EXTT17=
EXTT18=
EXTT19=
EXTT20=
PLAYORDER=
